<svg width="25" height="25" viewBox="0 0 25 25" fill="none" xmlns="http://www.w3.org/2000/svg">
<path d="M16.3334 14.2791L12.5002 16.4922L8.66675 14.2791V9.85272L12.5001 7.63953L16.3334 9.85272V14.2791Z" stroke="#DA428F" stroke-width="2" stroke-miterlimit="5" stroke-linecap="round" stroke-linejoin="round"/>
<path d="M12.4999 7.63959L8.66665 9.8527L4.83325 7.63959V3.2132L8.66658 1L12.4999 3.2132V7.63959Z" stroke="#DA428F" stroke-width="2" stroke-miterlimit="5" stroke-linecap="round" stroke-linejoin="round"/>
<path d="M20.1666 7.63959L16.3334 9.8527L12.5 7.63959V3.2132L16.3333 1L20.1666 3.2132V7.63959Z" stroke="#DA428F" stroke-width="2" stroke-miterlimit="5" stroke-linecap="round" stroke-linejoin="round"/>
<path d="M20.1666 20.9186L16.3334 23.1318L12.5 20.9186V16.4922L16.3333 14.2791L20.1666 16.4922V20.9186Z" stroke="#DA428F" stroke-width="2" stroke-miterlimit="5" stroke-linecap="round" stroke-linejoin="round"/>
<path d="M23.9999 14.2791L20.1667 16.4922L16.3333 14.2791V9.85272L20.1666 7.63953L23.9999 9.85272V14.2791Z" stroke="#DA428F" stroke-width="2" stroke-miterlimit="5" stroke-linecap="round" stroke-linejoin="round"/>
<path d="M12.4999 20.9186L8.66665 23.1318L4.83325 20.9186V16.4922L8.66658 14.2791L12.4999 16.4922V20.9186Z" stroke="#DA428F" stroke-width="2" stroke-miterlimit="5" stroke-linecap="round" stroke-linejoin="round"/>
<path d="M8.66665 14.2791L4.8334 16.4922L1 14.2791V9.85272L4.83332 7.63953L8.66665 9.85272V14.2791Z" stroke="#DA428F" stroke-width="2" stroke-miterlimit="5" stroke-linecap="round" stroke-linejoin="round"/>
</svg>
