<svg width="24" height="24" viewBox="0 0 24 24" fill="none" xmlns="http://www.w3.org/2000/svg">
<path fill-rule="evenodd" clip-rule="evenodd" d="M4.77327 6.02432C4.77327 5.33326 5.33411 4.77217 6.02512 4.77217C6.71614 4.77217 7.27696 5.33326 7.27696 6.02432C7.27696 6.71537 6.71614 7.27617 6.02512 7.27617C5.33411 7.27617 4.77327 6.71537 4.77327 6.02432ZM13.5299 20.6115L2.68771 9.76875C2.57004 9.65106 2.50494 9.492 2.50494 9.32549V3.75586C2.50494 3.06355 3.06451 2.50254 3.75677 2.50254H9.32622C9.49272 2.50254 9.6517 2.56884 9.76937 2.68652L20.6116 13.5293C21.0998 14.0188 21.0998 14.8112 20.6116 15.2994L15.3 20.6115C14.8118 21.0998 14.0194 21.0998 13.5299 20.6115ZM19.1206 8.49785C18.9128 8.28879 10.7809 0.157809 10.9899 0.365625C10.7546 0.131517 10.4366 0 10.1049 0H2.50494C1.12165 0 0 1.12043 0 2.50254V10.1042C0 10.4359 0.132702 10.7539 0.366797 10.9893L12.6449 23.2667C13.6225 24.2444 15.2074 24.2444 16.1851 23.2667C16.4079 23.0439 23.3456 16.1071 23.2667 16.1848C24.2444 15.207 24.2444 13.622 23.2667 12.6442L19.1206 8.49785Z" fill="#DA428F"/>
</svg>
