<svg width="26" height="26" viewBox="0 0 26 26" fill="none" xmlns="http://www.w3.org/2000/svg">
<path d="M15.6667 18.3333H20.7333C22.2268 18.3333 22.9736 18.3333 23.544 18.0427C24.0457 17.7871 24.4537 17.3791 24.7093 16.8773C25 16.3069 25 15.5601 25 14.0667V5.26667C25 3.7732 25 3.02645 24.7093 2.45603C24.4537 1.95425 24.0457 1.54631 23.544 1.29065C22.9736 1 22.2268 1 20.7333 1H9.26667C7.77319 1 7.02645 1 6.45603 1.29065C5.95425 1.54631 5.54631 1.95425 5.29065 2.45603C5.01784 2.99145 5.00109 3.6822 5.00007 5M21 5L14.3333 11.6667L10.3333 7.66667M21 5V9M21 5H17M9 13C9 14.4728 7.80609 15.6667 6.33333 15.6667C4.86057 15.6667 3.66667 14.4728 3.66667 13C3.66667 11.5272 4.86057 10.3333 6.33333 10.3333C7.80609 10.3333 9 11.5272 9 13ZM6.33333 19.6667C7.57329 19.6667 8.19328 19.6667 8.70195 19.8029C10.0823 20.1728 11.1605 21.2511 11.5304 22.6313C11.6667 23.14 11.6667 23.76 11.6667 25H1C1 23.76 1 23.14 1.13629 22.6313C1.50616 21.2511 2.58436 20.1728 3.96472 19.8029C4.47339 19.6667 5.09337 19.6667 6.33333 19.6667Z" stroke="#DA428F" stroke-width="2" stroke-linecap="round" stroke-linejoin="round"/>
</svg>
