<svg width="250" height="250" viewBox="0 0 250 250" fill="none" xmlns="http://www.w3.org/2000/svg">
<g clip-path="url(#clip0_11287_2002)">
<path d="M145.656 116.521L161.094 88.9167L133.698 104.354L125.219 73.9167L116.74 104.354L89.125 88.9167L104.344 116.521L73.9062 125L104.344 133.479L88.9063 161.094L116.51 145.656L124.99 176.094L133.469 145.656L161.073 161.094L145.635 133.698L176.073 125.219L145.656 116.521ZM133.698 126.74C133.698 126.958 133.479 127.177 133.479 127.385C133.479 127.594 133.26 128.031 133.26 128.219C133.042 128.437 133.042 128.656 132.823 129.052C132.604 129.271 132.604 129.49 132.385 129.698C132.146 130.115 131.875 130.469 131.552 130.781L131.333 131C130.896 131.437 130.5 131.646 130.021 132.083C129.802 132.302 129.583 132.302 129.375 132.521C129.167 132.74 128.865 132.885 128.552 132.948C128.344 133.083 128.083 133.167 127.813 133.167C127.771 133.167 127.74 133.167 127.698 133.167C127.479 133.167 127.052 133.385 126.865 133.385C126.427 133.385 126.031 133.604 125.552 133.604H124.719C124.656 133.615 124.583 133.615 124.5 133.615C124.104 133.615 123.729 133.531 123.396 133.385L123.417 133.396C123.198 133.396 122.771 133.177 122.583 133.177C122.396 133.177 121.938 132.958 121.75 132.958C121.531 132.74 121.104 132.74 120.917 132.521C120.729 132.302 120.479 132.302 120.271 132.083C119.771 131.781 119.344 131.417 118.969 131L118.75 130.781C118.312 130.344 118.104 129.948 117.667 129.469C117.448 129.25 117.448 129.031 117.229 128.823C117.01 128.615 117.01 128.177 116.792 127.99C116.656 127.781 116.573 127.531 116.573 127.26C116.573 127.219 116.573 127.187 116.573 127.146C116.573 126.927 116.354 126.708 116.354 126.5C116.219 125.979 116.135 125.375 116.135 124.76C116.135 124.146 116.219 123.542 116.365 122.969L116.354 123.021C116.354 122.802 116.573 122.583 116.573 122.375C116.573 121.937 116.792 121.729 117.01 121.292C117.01 121.073 117.229 120.854 117.229 120.646C117.448 120.427 117.448 120 117.667 119.812C117.927 119.583 118.146 119.302 118.313 119L118.323 118.979C118.76 118.542 118.969 118.146 119.406 117.896C119.625 117.677 119.844 117.458 120.052 117.458C120.49 117.24 120.698 117.021 121.135 116.812C121.354 116.812 121.354 116.594 121.573 116.594C122.01 116.375 122.406 116.375 122.885 116.156H123.323C123.844 116.021 124.448 115.937 125.062 115.937C125.677 115.937 126.281 116.021 126.854 116.167L126.802 116.156C127.021 116.156 127.24 116.375 127.448 116.375C127.885 116.375 128.094 116.594 128.531 116.812C128.75 117.031 128.969 117.031 129.365 117.25C129.583 117.469 129.802 117.469 130.01 117.687C130.948 118.344 131.75 119.135 132.385 120.052L132.406 120.083C132.625 120.302 132.625 120.521 132.844 120.729C133.063 120.937 133.208 121.24 133.271 121.552V121.562C133.406 121.771 133.49 122.021 133.49 122.292V122.406C133.49 122.625 133.708 122.844 133.708 123.24C133.854 123.677 133.938 124.177 133.938 124.687C133.938 124.792 133.938 124.896 133.927 124.99C133.938 125.094 133.938 125.208 133.938 125.344C133.938 125.844 133.854 126.333 133.688 126.781L133.698 126.75V126.74Z" fill="#DA428F"/>
<path d="M120.875 60.6563C120.875 57.3958 120.875 54.3438 120.656 51.7396C121.74 54.1354 123.052 56.7396 124.135 58.9167L128.49 66.7396H133.271V46.3021H128.917V52.3854C128.906 52.8542 128.896 53.3958 128.896 53.9479C128.896 56.3854 129.062 58.7917 129.385 61.1354L129.354 60.8646C128.229 58.0521 127.135 55.7708 125.917 53.5521L126.094 53.9063L121.74 46.3021H116.302V66.7396H120.656V60.6563H120.875Z" fill="#DA428F"/>
<path d="M63.4792 123.26C63.0417 125.656 62.6458 128.042 62.3958 130.438C62.1771 128.042 61.75 125.875 61.3125 123.479L59.5313 114.792H54.5313L52.8646 123.271C52.4271 125.875 51.7813 128.271 51.5521 130.448C51.1146 128.271 50.7188 125.667 50.2396 123.271L48.6875 114.792H43.6875L48.4688 135.229H53.4688L55.4271 126.313C55.8542 124.583 56.2396 122.438 56.4896 120.26L56.5104 120.01C56.7292 122.406 57.1563 124.365 57.3438 126.323L59.0833 135.24H64.0833L69.3021 114.802H65.1354L63.4792 123.26Z" fill="#DA428F"/>
<path d="M198.479 126.521H205.875V122.833H198.479V118.479H206.302V114.781H193.698V135.219H206.74V131.531H198.479V126.521Z" fill="#DA428F"/>
<path d="M126.729 192.823C124.125 191.74 122.813 191.302 122.813 190C122.813 188.917 123.646 188.042 125.854 188.042C127.427 188.104 128.917 188.406 130.313 188.906L130.208 188.875L131.292 185.187C129.75 184.562 127.969 184.167 126.104 184.104H126.073C121.292 184.104 118.25 186.708 118.25 190.187C118.25 193.229 120.427 194.969 123.896 196.271C126.292 197.104 127.375 197.792 127.375 199.094C127.375 200.396 126.292 201.271 124.115 201.271C122.198 201.229 120.396 200.75 118.802 199.937L118.875 199.969L118.042 203.885C119.708 204.708 121.667 205.198 123.729 205.198H123.875H123.865C129.51 205.198 132.125 202.375 132.125 198.885C132.198 196.094 130.427 194.135 126.729 192.823Z" fill="#DA428F"/>
<path d="M125 0C55.9688 0 0 55.9688 0 125C0 194.031 55.9688 250 125 250C194.031 250 250 194.031 250 125C249.906 56 194 0.09375 125.01 0H125ZM229.781 136.521C224.219 185.406 185.979 223.875 137.677 229.729L137.167 229.781L124.99 208.688L112.813 229.771C64.1667 223.833 26.0313 185.625 20.25 137.458L20.1979 136.958L40.6354 125L20.1979 113.26C26.0208 64.5938 64.1667 26.375 112.292 20.4896L112.802 20.4375L124.979 41.5313L137.156 20.4479C185.958 26.3542 224.198 64.8125 229.719 113.208L229.76 113.698L209.979 125.219L229.781 136.521Z" fill="#DA428F"/>
</g>
<defs>
<clipPath id="clip0_11287_2002">
<rect width="250" height="250" fill="white"/>
</clipPath>
</defs>
</svg>
