<svg width="250" height="250" viewBox="0 0 250 250" fill="none" xmlns="http://www.w3.org/2000/svg">
<g clip-path="url(#clip0_11288_3673)">
<path d="M120.875 60.6563C120.875 57.3958 120.875 54.3438 120.656 51.7396C121.739 54.1354 123.052 56.7396 124.135 58.9167L128.489 66.7396H133.271V46.3021H128.916V52.3854C128.906 52.8542 128.896 53.3958 128.896 53.9479C128.896 56.3854 129.062 58.7917 129.385 61.1354L129.354 60.8646C128.229 58.0521 127.135 55.7708 125.916 53.5521L126.093 53.9063L121.739 46.3021H116.302V66.7396H120.656V60.6563H120.875Z" fill="#DA428F"/>
<path d="M63.4792 123.26C63.0417 125.656 62.6458 128.042 62.3958 130.438C62.1771 128.042 61.75 125.875 61.3125 123.479L59.5313 114.792H54.5313L52.8646 123.271C52.4271 125.875 51.7813 128.271 51.5521 130.448C51.1146 128.271 50.7188 125.667 50.2396 123.271L48.6875 114.792H43.6875L48.4688 135.229H53.4688L55.4271 126.313C55.8542 124.583 56.2396 122.438 56.4896 120.26L56.5104 120.01C56.7292 122.406 57.1563 124.365 57.3438 126.323L59.0833 135.24H64.0833L69.3021 114.802H65.1354L63.4792 123.26Z" fill="#DA428F"/>
<path d="M198.48 126.521H205.875V122.833H198.48V118.479H206.302V114.781H193.698V135.219H206.74V131.531H198.48V126.521Z" fill="#DA428F"/>
<path d="M126.729 192.823C124.125 191.74 122.813 191.302 122.813 190C122.813 188.917 123.646 188.042 125.854 188.042C127.427 188.104 128.917 188.406 130.313 188.906L130.209 188.875L131.292 185.187C129.75 184.562 127.969 184.167 126.104 184.104H126.073C121.292 184.104 118.25 186.708 118.25 190.187C118.25 193.229 120.427 194.969 123.896 196.271C126.292 197.104 127.375 197.792 127.375 199.094C127.375 200.396 126.292 201.271 124.115 201.271C122.198 201.229 120.396 200.75 118.802 199.937L118.875 199.969L118.042 203.885C119.709 204.708 121.667 205.198 123.729 205.198H123.875H123.865C129.511 205.198 132.125 202.375 132.125 198.885C132.198 196.094 130.427 194.135 126.729 192.823Z" fill="#DA428F"/>
<path d="M125 0C55.9688 0 0 55.9688 0 125C0 194.031 55.9688 250 125 250C194.031 250 250 194.031 250 125C249.906 56 194 0.09375 125.01 0H125ZM229.781 136.521C224.219 185.406 185.979 223.875 137.677 229.729L137.167 229.781L124.99 208.688L112.813 229.771C64.1667 223.833 26.0313 185.625 20.25 137.458L20.1979 136.958L40.6354 125L20.1979 113.26C26.0208 64.5938 64.1667 26.375 112.292 20.4896L112.802 20.4375L124.979 41.5313L137.156 20.4479C185.958 26.3542 224.198 64.8125 229.719 113.208L229.76 113.698L209.979 125.219L229.781 136.521Z" fill="#DA428F"/>
</g>
<defs>
<clipPath id="clip0_11288_3673">
<rect width="250" height="250" fill="white"/>
</clipPath>
</defs>
</svg>
