<svg width="103" height="103" viewBox="0 0 103 103" fill="none" xmlns="http://www.w3.org/2000/svg">
<path d="M71.75 42.6042L87.1875 15L59.7917 30.4375L51.3125 0L42.8333 30.4375L15.2188 15L30.4375 42.6042L0 51.0833L30.4375 59.5625L15 87.1771L42.6042 71.7396L51.0833 102.177L59.5625 71.7396L87.1667 87.1771L71.7292 59.7812L102.167 51.3021L71.75 42.6042ZM59.7917 52.8229C59.7917 53.0417 59.5729 53.2604 59.5729 53.4687C59.5729 53.6771 59.3542 54.1146 59.3542 54.3021C59.1354 54.5208 59.1354 54.7396 58.9167 55.1354C58.6979 55.3542 58.6979 55.5729 58.4792 55.7812C58.2396 56.1979 57.9688 56.5521 57.6458 56.8646L57.4271 57.0833C56.9896 57.5208 56.5938 57.7292 56.1146 58.1667C55.8958 58.3854 55.6771 58.3854 55.4688 58.6042C55.2604 58.8229 54.9583 58.9687 54.6458 59.0312C54.4375 59.1667 54.1771 59.25 53.9063 59.25C53.8646 59.25 53.8333 59.25 53.7917 59.25C53.5729 59.25 53.1458 59.4687 52.9583 59.4687C52.5208 59.4687 52.125 59.6875 51.6458 59.6875H50.8125C50.75 59.6979 50.6771 59.6979 50.5938 59.6979C50.1979 59.6979 49.8229 59.6146 49.4896 59.4687L49.5104 59.4792C49.2917 59.4792 48.8646 59.2604 48.6771 59.2604C48.4896 59.2604 48.0312 59.0417 47.8438 59.0417C47.625 58.8229 47.1979 58.8229 47.0104 58.6042C46.8229 58.3854 46.5729 58.3854 46.3646 58.1667C45.8646 57.8646 45.4375 57.5 45.0625 57.0833L44.8438 56.8646C44.4062 56.4271 44.1979 56.0312 43.7604 55.5521C43.5417 55.3333 43.5417 55.1146 43.3229 54.9062C43.1042 54.6979 43.1042 54.2604 42.8854 54.0729C42.75 53.8646 42.6667 53.6146 42.6667 53.3437C42.6667 53.3021 42.6667 53.2708 42.6667 53.2292C42.6667 53.0104 42.4479 52.7917 42.4479 52.5833C42.3125 52.0625 42.2292 51.4583 42.2292 50.8437C42.2292 50.2292 42.3125 49.625 42.4583 49.0521L42.4479 49.1042C42.4479 48.8854 42.6667 48.6667 42.6667 48.4583C42.6667 48.0208 42.8854 47.8125 43.1042 47.375C43.1042 47.1562 43.3229 46.9375 43.3229 46.7292C43.5417 46.5104 43.5417 46.0833 43.7604 45.8958C44.0208 45.6667 44.2396 45.3854 44.4062 45.0833L44.4167 45.0625C44.8542 44.625 45.0625 44.2292 45.5 43.9792C45.7188 43.7604 45.9375 43.5417 46.1458 43.5417C46.5833 43.3229 46.7917 43.1042 47.2292 42.8958C47.4479 42.8958 47.4479 42.6771 47.6667 42.6771C48.1042 42.4583 48.5 42.4583 48.9792 42.2396H49.4167C49.9375 42.1042 50.5417 42.0208 51.1562 42.0208C51.7708 42.0208 52.375 42.1042 52.9479 42.25L52.8958 42.2396C53.1146 42.2396 53.3333 42.4583 53.5417 42.4583C53.9792 42.4583 54.1875 42.6771 54.625 42.8958C54.8438 43.1146 55.0625 43.1146 55.4583 43.3333C55.6771 43.5521 55.8958 43.5521 56.1042 43.7708C57.0417 44.4271 57.8438 45.2187 58.4792 46.1354L58.5 46.1667C58.7188 46.3854 58.7188 46.6042 58.9375 46.8125C59.1563 47.0208 59.3021 47.3229 59.3646 47.6354V47.6458C59.5 47.8542 59.5833 48.1042 59.5833 48.375V48.4896C59.5833 48.7083 59.8021 48.9271 59.8021 49.3229C59.9479 49.7604 60.0313 50.2604 60.0313 50.7708C60.0313 50.875 60.0313 50.9792 60.0208 51.0729C60.0313 51.1771 60.0313 51.2917 60.0313 51.4271C60.0313 51.9271 59.9479 52.4167 59.7812 52.8646L59.7917 52.8333V52.8229Z" fill="#DA428F"/>
</svg>
