<svg width="26" height="24" viewBox="0 0 26 24" fill="none" xmlns="http://www.w3.org/2000/svg">
<path d="M22.6061 1.74414H3.43038C2.7858 1.74414 2.16763 2.0002 1.71184 2.45598C1.25606 2.91177 1 3.52994 1 4.17452V15.1841C1 15.5033 1.06286 15.8193 1.185 16.1142C1.30714 16.4091 1.48616 16.677 1.71184 16.9027C1.93752 17.1284 2.20545 17.3074 2.50031 17.4295C2.79518 17.5517 3.11122 17.6145 3.43038 17.6145H5.42329L8.23038 22.4753C8.32038 22.6345 8.45106 22.767 8.60906 22.8592C8.76705 22.9514 8.9467 23 9.12962 23C9.31255 23 9.49219 22.9514 9.65018 22.8592C9.80818 22.767 9.93886 22.6345 10.0289 22.4753L12.8481 17.6145H22.5696C23.2142 17.6145 23.8324 17.3585 24.2882 16.9027C24.7439 16.4469 25 15.8287 25 15.1841V4.17452C25.0001 3.53621 24.749 2.9235 24.3011 2.46874C23.8532 2.01399 23.2443 1.75372 22.6061 1.74414Z" stroke="#DA428F" stroke-width="2" stroke-linecap="round" stroke-linejoin="round"/>
<path d="M4.52405 7.34616H11.8152" stroke="#DA428F" stroke-width="2" stroke-linecap="round" stroke-linejoin="round"/>
<path d="M4.52405 12.2069H20.3215" stroke="#DA428F" stroke-width="2" stroke-linecap="round" stroke-linejoin="round"/>
</svg>
