<svg width="20" height="17" viewBox="0 0 20 17" fill="none" xmlns="http://www.w3.org/2000/svg">
<path d="M10 4.16667C8.85417 4.16667 7.91667 3.22917 7.91667 2.08333C7.91667 0.911666 8.85417 0 10 0C11.1458 0 12.0833 0.911666 12.0833 2.08333C12.0833 3.22917 11.1458 4.16667 10 4.16667ZM1.6925 3.30667C2.60417 3.30667 3.33333 4.06167 3.33333 4.97333C3.33333 5.91083 2.60417 6.64 1.6925 6.64C0.755 6.64 0 5.91083 0 4.97333C0 4.06167 0.755 3.30667 1.6925 3.30667ZM18.3592 3.30667C19.2708 3.30667 20 4.06167 20 4.97333C20 5.91083 19.2708 6.64 18.3592 6.64C17.4217 6.64 16.6667 5.91083 16.6667 4.97333C16.6667 4.06167 17.4217 3.30667 18.3592 3.30667ZM3.51583 14.8175L2.13583 7.265C2.5525 7.18667 2.94333 6.9525 3.25583 6.69167C4.115 7.47333 5.20917 8.22833 6.25083 8.22833C7.50083 8.22833 8.51667 6.30083 9.22 4.68667C9.45417 4.765 9.74083 4.84333 10.0017 4.84333C10.2625 4.84333 10.5483 4.765 10.7833 4.68667C11.4867 6.30167 12.5025 8.22833 13.7525 8.22833C14.7942 8.22833 15.8883 7.47333 16.7475 6.69167C17.06 6.9525 17.4508 7.18667 17.8675 7.265L16.4875 14.8175H3.51833H3.51583ZM3.22917 15.4683H16.7708V16.7442H3.22917V15.4683Z" fill="#DA428F"/>
</svg>
