<svg width="240" height="47" viewBox="0 0 240 47" fill="none" xmlns="http://www.w3.org/2000/svg">
<path fill-rule="evenodd" clip-rule="evenodd" d="M33.25 19.3164H25.75V11.8164C25.75 9.74453 24.0709 8.06641 22 8.06641C19.9291 8.06641 18.25 9.74453 18.25 11.8164V19.3164H10.75C8.67906 19.3164 7 20.9945 7 23.0664C7 25.1383 8.67906 26.8164 10.75 26.8164H18.25V34.3164C18.25 36.3883 19.9291 38.0664 22 38.0664C24.0709 38.0664 25.75 36.3883 25.75 34.3164V26.8164H33.25C35.3209 26.8164 37 25.1383 37 23.0664C37 20.9945 35.3209 19.3164 33.25 19.3164Z" fill="#44277A"/>
<line x1="44.5" y1="6.06641" x2="44.5" y2="40.0664" stroke="#44277A"/>
</svg>
