<svg width="240" height="48" viewBox="0 0 240 48" fill="none" xmlns="http://www.w3.org/2000/svg">
<path fill-rule="evenodd" clip-rule="evenodd" d="M33.25 20.25H25.75V12.75C25.75 10.6781 24.0709 9 22 9C19.9291 9 18.25 10.6781 18.25 12.75V20.25H10.75C8.67906 20.25 7 21.9281 7 24C7 26.0719 8.67906 27.75 10.75 27.75H18.25V35.25C18.25 37.3219 19.9291 39 22 39C24.0709 39 25.75 37.3219 25.75 35.25V27.75H33.25C35.3209 27.75 37 26.0719 37 24C37 21.9281 35.3209 20.25 33.25 20.25Z" fill="#DA428F"/>
<line x1="44.5" y1="7" x2="44.5" y2="41" stroke="#DA428F"/>
</svg>
