<svg width="24" height="26" viewBox="0 0 24 26" fill="none" xmlns="http://www.w3.org/2000/svg">
<path d="M18.2419 20.4901L20.0445 21.2815C20.4178 21.4453 20.8538 21.3555 21.1322 21.0572C22.4289 19.6687 23.3946 18.0037 23.9568 16.1875C24.0781 15.7957 23.9384 15.37 23.6088 15.1267L22.0161 13.951C21.5612 13.6162 21.287 13.0855 21.287 12.5211C21.287 11.9567 21.5612 11.426 22.0151 11.0918L23.6064 9.91663C23.9359 9.67329 24.0754 9.24756 23.9542 8.85594C23.3919 7.03936 22.4256 5.37427 21.1281 3.98593C20.8494 3.68764 20.4131 3.59804 20.0398 3.76239L18.2445 4.55257C18.0198 4.65216 17.7793 4.70289 17.5362 4.70251C16.6317 4.70156 15.873 4.01963 15.7743 3.11928L15.5561 1.15838C15.5106 0.749395 15.2108 0.414553 14.8099 0.32497C13.8916 0.119781 12.9545 0.0108626 12.0137 0C11.0495 0.011113 10.1113 0.119979 9.19189 0.324855C8.79078 0.41424 8.49078 0.749186 8.44518 1.15838L8.2272 3.11779C8.16459 3.67848 7.83996 4.17661 7.35252 4.45992C6.86291 4.74652 6.26914 4.78082 5.75265 4.55372L3.95766 3.76367C3.58426 3.59932 3.14801 3.68892 2.86926 3.98721C1.57186 5.37555 0.605613 7.04064 0.0432201 8.85719C-0.078126 9.24912 0.0617104 9.67507 0.391606 9.9183L1.9843 11.0927C2.43883 11.4273 2.70693 11.958 2.70693 12.5224C2.70693 13.0867 2.43883 13.6174 1.98489 13.9516L0.391199 15.128C0.0617941 15.3711 -0.0779174 15.7965 0.0430113 16.1881C0.604424 18.0063 1.57016 19.6733 2.86754 21.0635C3.14601 21.3618 3.58206 21.4518 3.95552 21.2878L5.75853 20.4964C6.27252 20.2715 6.86382 20.3046 7.3508 20.5858C7.83777 20.867 8.16261 21.3632 8.22616 21.9227L8.44257 23.8805C8.48723 24.2848 8.78066 24.6174 9.17562 24.7116C11.0322 25.1541 12.9666 25.1541 14.8231 24.7116C15.2181 24.6174 15.5114 24.2848 15.5562 23.8805L15.7729 21.9199C15.8348 21.3592 16.1456 20.8616 16.633 20.5793C17.1205 20.2972 17.7262 20.264 18.2419 20.4901ZM12 16.6956C9.69485 16.6956 7.82609 14.8268 7.82609 12.5217C7.82609 10.2165 9.69485 8.34776 12 8.34776C14.3051 8.34776 16.1739 10.2165 16.1739 12.5217C16.1739 14.8268 14.3051 16.6956 12 16.6956Z" fill="white"/>
</svg>
