<svg width="240" height="48" viewBox="0 0 240 48" fill="none" xmlns="http://www.w3.org/2000/svg">
<rect width="240" height="48" rx="12" fill="#DA428F"/>
<path d="M25.3333 30.6667H31.6667C33.5335 30.6667 34.467 30.6667 35.18 30.3033C35.8072 29.9838 36.3172 29.4738 36.6367 28.8467C37 28.1337 37 27.2002 37 25.3333V14.3333C37 12.4665 37 11.5331 36.6367 10.82C36.3172 10.1928 35.8072 9.68288 35.18 9.36332C34.467 9 33.5335 9 31.6667 9H17.3333C15.4665 9 14.5331 9 13.82 9.36332C13.1928 9.68288 12.6829 10.1928 12.3633 10.82C12.0223 11.4893 12.0014 12.3527 12.0001 14M32 14L23.6667 22.3333L18.6667 17.3333M32 14V19M32 14H27M17 24C17 25.841 15.5076 27.3333 13.6667 27.3333C11.8257 27.3333 10.3333 25.841 10.3333 24C10.3333 22.159 11.8257 20.6667 13.6667 20.6667C15.5076 20.6667 17 22.159 17 24ZM13.6667 32.3333C15.2166 32.3333 15.9916 32.3333 16.6274 32.5037C18.3529 32.966 19.7007 34.3138 20.163 36.0392C20.3333 36.675 20.3333 37.45 20.3333 39H7C7 37.45 7 36.675 7.17037 36.0392C7.6327 34.3138 8.98045 32.966 10.7059 32.5037C11.3417 32.3333 12.1167 32.3333 13.6667 32.3333Z" stroke="white" stroke-width="2" stroke-linecap="round" stroke-linejoin="round"/>
<line x1="44.5" y1="7" x2="44.5" y2="41" stroke="white"/>
</svg>
