<svg width="24" height="24" viewBox="0 0 24 24" fill="none" xmlns="http://www.w3.org/2000/svg">
<path d="M13.0842 0V7.69714C13.8475 7.92195 14.542 8.33491 15.1041 8.89811L21.8186 5.02224C20.8081 3.60764 19.5051 2.42698 17.9981 1.56042C16.491 0.693862 14.8151 0.16168 13.0842 0ZM22.9104 6.93288L16.1958 10.8087C16.4142 11.5574 16.4142 12.3528 16.1958 13.1015L22.9104 16.9774C23.6284 15.4004 24 13.6879 24 11.9551C24 10.2224 23.6284 8.50982 22.9104 6.93288ZM11.9924 16.3223C10.9073 16.3546 9.84898 15.9815 9.02394 15.2759C8.1989 14.5702 7.66628 13.5825 7.52995 12.5055C7.39361 11.4284 7.66333 10.3392 8.28652 9.45022C8.9097 8.56124 9.84166 7.93626 10.9007 7.69714V0C8.89468 0.18604 6.96774 0.873709 5.29721 1.9997C3.62668 3.1257 2.26625 4.65384 1.34114 6.44345C0.416027 8.23306 -0.0440295 10.2266 0.00331792 12.2407C0.0506654 14.2547 0.603895 16.2244 1.61208 17.9686C2.62027 19.7127 4.05101 21.1753 5.77261 22.2215C7.4942 23.2678 9.45133 23.8641 11.4638 23.9557C13.4763 24.0473 15.4795 23.6311 17.289 22.7455C19.0985 21.8599 20.6562 20.5334 21.8186 18.888L15.1041 15.0121C14.6983 15.4261 14.2142 15.7551 13.68 15.9801C13.1458 16.205 12.5721 16.3213 11.9924 16.3223Z" fill="#DA428F"/>
</svg>
