<svg width="20" height="20" viewBox="0 0 20 20" fill="none" xmlns="http://www.w3.org/2000/svg">
<path fill-rule="evenodd" clip-rule="evenodd" d="M13.7499 18.3333C12.375 18.3333 11.6875 18.3333 11.2604 17.9062C10.8333 17.4791 10.8333 16.7916 10.8333 15.4167C10.8333 14.0417 10.8333 13.3542 11.2604 12.9272C11.6875 12.5 12.375 12.5 13.7499 12.5C15.1248 12.5 15.8123 12.5 16.2394 12.9272C16.6666 13.3542 16.6666 14.0417 16.6666 15.4167C16.6666 16.7916 16.6666 17.4791 16.2394 17.9062C15.8123 18.3333 15.1248 18.3333 13.7499 18.3333ZM12.7973 13.7767C12.6075 13.5868 12.2998 13.5868 12.1099 13.7767C11.9201 13.9665 11.9201 14.2742 12.1099 14.4641L13.0624 15.4167L12.1099 16.3693C11.9201 16.5591 11.9201 16.8668 12.1099 17.0567C12.2998 17.2465 12.6075 17.2465 12.7973 17.0567L13.7499 16.1042L14.7025 17.0567C14.8923 17.2465 15.2001 17.2465 15.3899 17.0567C15.5798 16.8668 15.5798 16.5591 15.3899 16.3693L14.4374 15.4167L15.3899 14.4641C15.5798 14.2742 15.5798 13.9665 15.3899 13.7767C15.2001 13.5868 14.8923 13.5868 14.7025 13.7767L13.7499 14.7292L12.7973 13.7767Z" fill="#DA428F" fill-opacity="0.6"/>
<path d="M10.0001 8.33341C11.841 8.33341 13.3334 6.84103 13.3334 5.00008C13.3334 3.15913 11.841 1.66675 10.0001 1.66675C8.15913 1.66675 6.66675 3.15913 6.66675 5.00008C6.66675 6.84103 8.15913 8.33341 10.0001 8.33341Z" fill="#DA428F" fill-opacity="0.6"/>
<path d="M13.0651 11.2523C12.6708 11.257 12.3034 11.2714 11.9832 11.3144C11.4474 11.3865 10.8611 11.5587 10.3765 12.0432C9.892 12.5277 9.71983 13.1141 9.64783 13.6498C9.58308 14.1313 9.58317 14.7195 9.58325 15.3449V15.4883C9.58317 16.1137 9.58308 16.7019 9.64783 17.1833C9.69833 17.5593 9.79817 17.9601 10.0207 18.3333C10.0138 18.3333 10.0068 18.3333 9.99992 18.3333C3.33325 18.3333 3.33325 16.6543 3.33325 14.5833C3.33325 12.5122 6.31802 10.8333 9.99992 10.8333C11.1051 10.8333 12.1474 10.9845 13.0651 11.2523Z" fill="#DA428F" fill-opacity="0.6"/>
</svg>
