<svg width="32" height="25" viewBox="0 0 32 25" fill="none" xmlns="http://www.w3.org/2000/svg">
<path d="M16 0C8.84089 0 2.69511 5.12178 0 12.4444C2.69511 19.7671 8.84089 24.8889 16 24.8889C23.1591 24.8889 29.3049 19.7671 32 12.4444C29.3049 5.12178 23.1591 0 16 0ZM16 17.7778C14.9452 17.7778 13.914 17.465 13.037 16.8789C12.1599 16.2929 11.4763 15.46 11.0726 14.4854C10.669 13.5109 10.5634 12.4385 10.7691 11.404C10.9749 10.3694 11.4829 9.41909 12.2288 8.67321C12.9746 7.92733 13.925 7.41938 14.9595 7.21359C15.9941 7.0078 17.0664 7.11342 18.041 7.51709C19.0155 7.92075 19.8485 8.60434 20.4345 9.4814C21.0205 10.3585 21.3333 11.3896 21.3333 12.4444C21.3333 13.8589 20.7714 15.2155 19.7712 16.2157C18.771 17.2159 17.4145 17.7778 16 17.7778Z" fill="#44277A"/>
</svg>
