<svg width="32" height="26" viewBox="0 0 32 26" fill="none" xmlns="http://www.w3.org/2000/svg">
<path d="M16 0.888885C8.84089 0.888885 2.69511 6.01066 0 13.3333C2.69511 20.656 8.84089 25.7778 16 25.7778C23.1591 25.7778 29.3049 20.656 32 13.3333C29.3049 6.01066 23.1591 0.888885 16 0.888885ZM16 18.6667C14.9452 18.6667 13.914 18.3539 13.037 17.7678C12.1599 17.1818 11.4763 16.3488 11.0726 15.3743C10.669 14.3998 10.5634 13.3274 10.7691 12.2928C10.9749 11.2583 11.4829 10.308 12.2288 9.56209C12.9746 8.81621 13.925 8.30826 14.9595 8.10247C15.9941 7.89669 17.0664 8.0023 18.041 8.40597C19.0155 8.80964 19.8485 9.49323 20.4345 10.3703C21.0205 11.2473 21.3333 12.2785 21.3333 13.3333C21.3333 14.7478 20.7714 16.1044 19.7712 17.1046C18.771 18.1048 17.4145 18.6667 16 18.6667Z" fill="#DA428F"/>
</svg>
