<svg width="218" height="88" viewBox="0 0 218 88" fill="none" xmlns="http://www.w3.org/2000/svg">
<g filter="url(#filter0_d_10684_4170)">
<rect x="21" y="21" width="176" height="46" rx="11" stroke="#DA428F" stroke-width="2" shape-rendering="crispEdges"/>
<path fill-rule="evenodd" clip-rule="evenodd" d="M46.5 41.6C47.6307 41.5998 48.7312 41.2105 49.6378 40.4898C50.5445 39.7692 51.209 38.7557 51.5325 37.6H55.5C55.8978 37.6 56.2794 37.4315 56.5607 37.1314C56.842 36.8313 57 36.4244 57 36C57 35.5757 56.842 35.1687 56.5607 34.8687C56.2794 34.5686 55.8978 34.4 55.5 34.4H51.5325C51.2084 33.245 50.5437 32.2322 49.6371 31.5121C48.7305 30.7921 47.6303 30.4032 46.5 30.4032C45.3697 30.4032 44.2695 30.7921 43.3629 31.5121C42.4563 32.2322 41.7916 33.245 41.4675 34.4H28.5C28.1022 34.4 27.7206 34.5686 27.4393 34.8687C27.158 35.1687 27 35.5757 27 36C27 36.4244 27.158 36.8313 27.4393 37.1314C27.7206 37.4315 28.1022 37.6 28.5 37.6H41.4675C41.791 38.7557 42.4555 39.7692 43.3622 40.4898C44.2688 41.2105 45.3693 41.5998 46.5 41.6ZM28.5 50.4C28.1022 50.4 27.7206 50.5686 27.4393 50.8687C27.158 51.1687 27 51.5757 27 52C27 52.4244 27.158 52.8313 27.4393 53.1314C27.7206 53.4315 28.1022 53.6 28.5 53.6H31.7175C32.0416 54.7551 32.7063 55.7679 33.6129 56.4879C34.5195 57.208 35.6197 57.5969 36.75 57.5969C37.8803 57.5969 38.9805 57.208 39.8871 56.4879C40.7937 55.7679 41.4584 54.7551 41.7825 53.6H55.5C55.8978 53.6 56.2794 53.4315 56.5607 53.1314C56.842 52.8313 57 52.4244 57 52C57 51.5757 56.842 51.1687 56.5607 50.8687C56.2794 50.5686 55.8978 50.4 55.5 50.4H41.7825C41.4584 49.245 40.7937 48.2322 39.8871 47.5121C38.9805 46.7921 37.8803 46.4032 36.75 46.4032C35.6197 46.4032 34.5195 46.7921 33.6129 47.5121C32.7063 48.2322 32.0416 49.245 31.7175 50.4H28.5Z" fill="#DA428F"/>
<line x1="64.5" y1="27" x2="64.5" y2="61" stroke="#DA428F"/>
</g>
<defs>
<filter id="filter0_d_10684_4170" x="0" y="0" width="218" height="88" filterUnits="userSpaceOnUse" color-interpolation-filters="sRGB">
<feFlood flood-opacity="0" result="BackgroundImageFix"/>
<feColorMatrix in="SourceAlpha" type="matrix" values="0 0 0 0 0 0 0 0 0 0 0 0 0 0 0 0 0 0 127 0" result="hardAlpha"/>
<feOffset/>
<feGaussianBlur stdDeviation="10"/>
<feComposite in2="hardAlpha" operator="out"/>
<feColorMatrix type="matrix" values="0 0 0 0 0.827451 0 0 0 0 0.364706 0 0 0 0 0.709804 0 0 0 1 0"/>
<feBlend mode="normal" in2="BackgroundImageFix" result="effect1_dropShadow_10684_4170"/>
<feBlend mode="normal" in="SourceGraphic" in2="effect1_dropShadow_10684_4170" result="shape"/>
</filter>
</defs>
</svg>
