<svg width="178" height="48" viewBox="0 0 178 48" fill="none" xmlns="http://www.w3.org/2000/svg">
<path fill-rule="evenodd" clip-rule="evenodd" d="M26.5 21.5999C27.6307 21.5997 28.7312 21.2103 29.6378 20.4897C30.5445 19.769 31.209 18.7556 31.5325 17.5999H35.5C35.8978 17.5999 36.2794 17.4313 36.5607 17.1313C36.842 16.8312 37 16.4243 37 15.9999C37 15.5756 36.842 15.1686 36.5607 14.8685C36.2794 14.5685 35.8978 14.3999 35.5 14.3999H31.5325C31.2084 13.2448 30.5437 12.2321 29.6371 11.512C28.7305 10.792 27.6303 10.4031 26.5 10.4031C25.3697 10.4031 24.2695 10.792 23.3629 11.512C22.4563 12.2321 21.7916 13.2448 21.4675 14.3999H8.5C8.10218 14.3999 7.72064 14.5685 7.43934 14.8685C7.15804 15.1686 7 15.5756 7 15.9999C7 16.4243 7.15804 16.8312 7.43934 17.1313C7.72064 17.4313 8.10218 17.5999 8.5 17.5999H21.4675C21.791 18.7556 22.4555 19.769 23.3622 20.4897C24.2688 21.2103 25.3693 21.5997 26.5 21.5999ZM8.5 30.3999C8.10218 30.3999 7.72064 30.5685 7.43934 30.8685C7.15804 31.1686 7 31.5756 7 31.9999C7 32.4243 7.15804 32.8312 7.43934 33.1313C7.72064 33.4313 8.10218 33.5999 8.5 33.5999H11.7175C12.0416 34.755 12.7063 35.7678 13.6129 36.4878C14.5195 37.2078 15.6197 37.5967 16.75 37.5967C17.8803 37.5967 18.9805 37.2078 19.8871 36.4878C20.7937 35.7678 21.4584 34.755 21.7825 33.5999H35.5C35.8978 33.5999 36.2794 33.4313 36.5607 33.1313C36.842 32.8312 37 32.4243 37 31.9999C37 31.5756 36.842 31.1686 36.5607 30.8685C36.2794 30.5685 35.8978 30.3999 35.5 30.3999H21.7825C21.4584 29.2448 20.7937 28.2321 19.8871 27.512C18.9805 26.792 17.8803 26.4031 16.75 26.4031C15.6197 26.4031 14.5195 26.792 13.6129 27.512C12.7063 28.2321 12.0416 29.2448 11.7175 30.3999H8.5Z" fill="#44277A"/>
<line x1="44.5" y1="7" x2="44.5" y2="41" stroke="#44277A"/>
</svg>
