<svg width="178" height="48" viewBox="0 0 178 48" fill="none" xmlns="http://www.w3.org/2000/svg">
<rect x="1" y="1" width="176" height="46" rx="11" stroke="#44277A" stroke-width="2"/>
<path fill-rule="evenodd" clip-rule="evenodd" d="M26.5 21.6C27.6307 21.5998 28.7312 21.2105 29.6378 20.4898C30.5445 19.7692 31.209 18.7557 31.5325 17.6H35.5C35.8978 17.6 36.2794 17.4315 36.5607 17.1314C36.842 16.8313 37 16.4244 37 16C37 15.5757 36.842 15.1687 36.5607 14.8687C36.2794 14.5686 35.8978 14.4 35.5 14.4H31.5325C31.2084 13.245 30.5437 12.2322 29.6371 11.5121C28.7305 10.7921 27.6303 10.4032 26.5 10.4032C25.3697 10.4032 24.2695 10.7921 23.3629 11.5121C22.4563 12.2322 21.7916 13.245 21.4675 14.4H8.5C8.10218 14.4 7.72064 14.5686 7.43934 14.8687C7.15804 15.1687 7 15.5757 7 16C7 16.4244 7.15804 16.8313 7.43934 17.1314C7.72064 17.4315 8.10218 17.6 8.5 17.6H21.4675C21.791 18.7557 22.4555 19.7692 23.3622 20.4898C24.2688 21.2105 25.3693 21.5998 26.5 21.6ZM8.5 30.4C8.10218 30.4 7.72064 30.5686 7.43934 30.8687C7.15804 31.1687 7 31.5757 7 32C7 32.4244 7.15804 32.8313 7.43934 33.1314C7.72064 33.4315 8.10218 33.6 8.5 33.6H11.7175C12.0416 34.7551 12.7063 35.7679 13.6129 36.4879C14.5195 37.208 15.6197 37.5969 16.75 37.5969C17.8803 37.5969 18.9805 37.208 19.8871 36.4879C20.7937 35.7679 21.4584 34.7551 21.7825 33.6H35.5C35.8978 33.6 36.2794 33.4315 36.5607 33.1314C36.842 32.8313 37 32.4244 37 32C37 31.5757 36.842 31.1687 36.5607 30.8687C36.2794 30.5686 35.8978 30.4 35.5 30.4H21.7825C21.4584 29.245 20.7937 28.2322 19.8871 27.5121C18.9805 26.7921 17.8803 26.4032 16.75 26.4032C15.6197 26.4032 14.5195 26.7921 13.6129 27.5121C12.7063 28.2322 12.0416 29.245 11.7175 30.4H8.5Z" fill="#44277A"/>
<line x1="44.5" y1="7" x2="44.5" y2="41" stroke="#44277A"/>
</svg>
