<svg width="24" height="24" viewBox="0 0 24 24" fill="none" xmlns="http://www.w3.org/2000/svg">
<path d="M23.999 11.979V12.002C23.999 18.6296 18.6266 24.002 11.999 24.002C9.13676 24.002 6.50754 22.9999 4.44537 21.3268L4.46737 21.3448C4.20435 21.1298 4.03734 20.8057 4.03734 20.4427C4.03734 20.1217 4.16735 19.8317 4.37837 19.6206L4.92341 19.0756C5.13443 18.8636 5.42645 18.7316 5.74948 18.7316C6.0215 18.7316 6.27152 18.8246 6.46954 18.9816L6.46754 18.9796C7.97166 20.1797 9.89982 20.9047 11.998 20.9047C16.9154 20.9047 20.9017 16.9184 20.9017 12.001C20.9017 7.08359 16.9154 3.09726 11.998 3.09726C9.6358 3.09726 7.48862 4.01733 5.89549 5.51746L5.90049 5.51346L8.3567 7.96966C8.49671 8.10968 8.58271 8.30369 8.58271 8.51671C8.58271 8.94374 8.23669 9.29077 7.80865 9.29077H0.774064C0.346029 9.29077 0 8.94374 0 8.51671V1.48212C0 1.05509 0.347029 0.708059 0.774064 0.708059C0.988082 0.708059 1.1811 0.795066 1.32111 0.934078L3.71031 3.32328C5.86049 1.26611 8.78273 0 12 0C18.6196 0 23.988 5.36045 24 11.977V11.978L23.999 11.979ZM15.2453 15.7903L15.7203 15.1793C15.8723 14.9842 15.9643 14.7362 15.9643 14.4662C15.9643 14.0942 15.7903 13.7641 15.5183 13.5511L15.5153 13.5491L13.5461 12.017V6.96858C13.5461 6.32753 13.0261 5.80648 12.384 5.80648H11.61C10.9689 5.80648 10.4479 6.32653 10.4479 6.96858V13.5291L13.6131 15.9903C13.8082 16.1443 14.0582 16.2374 14.3292 16.2374C14.7002 16.2374 15.0303 16.0633 15.2433 15.7933L15.2453 15.7903Z" fill="#DA428F"/>
</svg>
