<svg width="332" height="50" viewBox="0 0 332 50" fill="none" xmlns="http://www.w3.org/2000/svg">
<rect width="332" height="50" rx="8" fill="white"/>
<path d="M0 8C0 3.58172 3.58172 0 8 0H49V50H8C3.58172 50 0 46.4183 0 42V8Z" fill="#DA428F"/>
<path d="M18.4141 18.541L13.707 31.5H11.7832L17.2031 17.2812H18.4434L18.4141 18.541ZM22.3594 31.5L17.6426 18.541L17.6133 17.2812H18.8535L24.293 31.5H22.3594ZM22.1152 26.2363V27.7793H14.127V26.2363H22.1152ZM34.1562 17.2812H36.0312V26.9004C36.0312 27.9681 35.7936 28.8568 35.3184 29.5664C34.8431 30.276 34.2116 30.8099 33.4238 31.168C32.6426 31.5195 31.793 31.6953 30.875 31.6953C29.9115 31.6953 29.0391 31.5195 28.2578 31.168C27.4831 30.8099 26.8678 30.276 26.4121 29.5664C25.9629 28.8568 25.7383 27.9681 25.7383 26.9004V17.2812H27.6035V26.9004C27.6035 27.6426 27.7402 28.2546 28.0137 28.7363C28.2871 29.2181 28.668 29.5762 29.1562 29.8105C29.651 30.0449 30.224 30.1621 30.875 30.1621C31.5326 30.1621 32.1055 30.0449 32.5938 29.8105C33.0885 29.5762 33.4727 29.2181 33.7461 28.7363C34.0195 28.2546 34.1562 27.6426 34.1562 26.9004V17.2812Z" fill="white"/>
</svg>
