<svg width="332" height="50" viewBox="0 0 332 50" fill="none" xmlns="http://www.w3.org/2000/svg">
<rect width="332" height="50" rx="8" fill="white"/>
<path d="M0 8C0 3.58172 3.58172 0 8 0H49V50H8C3.58172 50 0 46.4183 0 42V8Z" fill="#DA428F"/>
<path d="M16.498 31.5H13.5293L13.5488 29.9668H16.498C17.5137 29.9668 18.36 29.7552 19.0371 29.332C19.7142 28.9023 20.222 28.3034 20.5605 27.5352C20.9056 26.7604 21.0781 25.8555 21.0781 24.8203V23.9512C21.0781 23.1374 20.9805 22.4147 20.7852 21.7832C20.5898 21.1452 20.3034 20.6081 19.9258 20.1719C19.5482 19.7292 19.0859 19.3939 18.5391 19.166C17.9987 18.9382 17.377 18.8242 16.6738 18.8242H13.4707V17.2812H16.6738C17.6048 17.2812 18.4544 17.4375 19.2227 17.75C19.9909 18.056 20.6517 18.502 21.2051 19.0879C21.765 19.6673 22.1947 20.3704 22.4941 21.1973C22.7936 22.0176 22.9434 22.9421 22.9434 23.9707V24.8203C22.9434 25.849 22.7936 26.7767 22.4941 27.6035C22.1947 28.4238 21.7617 29.1237 21.1953 29.7031C20.6354 30.2826 19.9583 30.7285 19.1641 31.041C18.3763 31.347 17.4876 31.5 16.498 31.5ZM14.5352 17.2812V31.5H12.6504V17.2812H14.5352ZM33.9102 17.2812H35.7852V26.9004C35.7852 27.9681 35.5475 28.8568 35.0723 29.5664C34.597 30.276 33.9655 30.8099 33.1777 31.168C32.3965 31.5195 31.5469 31.6953 30.6289 31.6953C29.6654 31.6953 28.793 31.5195 28.0117 31.168C27.237 30.8099 26.6217 30.276 26.166 29.5664C25.7168 28.8568 25.4922 27.9681 25.4922 26.9004V17.2812H27.3574V26.9004C27.3574 27.6426 27.4941 28.2546 27.7676 28.7363C28.041 29.2181 28.4219 29.5762 28.9102 29.8105C29.4049 30.0449 29.9779 30.1621 30.6289 30.1621C31.2865 30.1621 31.8594 30.0449 32.3477 29.8105C32.8424 29.5762 33.2266 29.2181 33.5 28.7363C33.7734 28.2546 33.9102 27.6426 33.9102 26.9004V17.2812Z" fill="white"/>
</svg>
