<svg width="24" height="24" viewBox="0 0 24 24" fill="none" xmlns="http://www.w3.org/2000/svg">
<path d="M12.0001 5.54269C13.6553 5.54269 14.9977 4.30191 14.9977 2.77153C14.9977 1.24116 13.6553 0 12.0001 0C10.3449 0 9.00293 1.24111 9.00293 2.77153C9.00293 4.30195 10.3449 5.54269 12.0001 5.54269Z" fill="#DA428F"/>
<path d="M12.0001 10.6971C14.0591 10.6971 16.1677 10.0379 15.8387 8.21279C15.7047 7.4716 15.0418 6.43262 14.5383 5.96743C14.4731 5.90753 14.1779 5.89187 14.0977 5.93781C13.4867 6.28628 12.7693 6.48943 12 6.48943C11.2312 6.48943 10.5138 6.28628 9.90282 5.93781C9.82256 5.89187 9.52735 5.90753 9.4622 5.96743C8.95907 6.43262 8.29543 7.4716 8.16179 8.21279C7.83281 10.0379 9.9415 10.6971 12.0001 10.6971Z" fill="#DA428F"/>
<path d="M3.87222 18.8459C5.52742 18.8459 6.8698 17.6051 6.8698 16.0748C6.8698 14.544 5.52747 13.3032 3.87222 13.3032C2.21698 13.3032 0.875 14.544 0.875 16.0748C0.875051 17.6051 2.21703 18.8459 3.87222 18.8459Z" fill="#DA428F"/>
<path d="M6.41053 19.271C6.34539 19.2104 6.05022 19.1954 5.96997 19.241C5.3586 19.5895 4.64162 19.7924 3.87233 19.7924C3.10309 19.7924 2.38606 19.5896 1.77505 19.241C1.69479 19.1955 1.39922 19.2104 1.33413 19.271C0.830948 19.7358 0.167715 20.7748 0.0341253 21.516C-0.294956 23.3411 1.81373 24 3.87233 24C5.93133 24 8.04002 23.3411 7.71089 21.516C7.577 20.7748 6.91371 19.7358 6.41053 19.271Z" fill="#DA428F"/>
<path d="M20.1277 18.8459C21.7829 18.8459 23.1249 17.6051 23.1249 16.0748C23.1249 14.544 21.7829 13.3032 20.1277 13.3032C18.4725 13.3032 17.1301 14.544 17.1301 16.0748C17.1302 17.6051 18.4725 18.8459 20.1277 18.8459Z" fill="#DA428F"/>
<path d="M23.9659 21.516C23.8323 20.7748 23.169 19.7358 22.6659 19.271C22.6007 19.2104 22.3052 19.1954 22.2249 19.241C21.6139 19.5895 20.8969 19.7924 20.1277 19.7924C19.3584 19.7924 18.6414 19.5896 18.03 19.241C17.9498 19.1955 17.6546 19.2104 17.5895 19.271C17.0863 19.7358 16.4232 20.7748 16.2892 21.516C15.9602 23.3411 18.0686 24 20.1277 24C22.1863 24 24.2949 23.3411 23.9659 21.516Z" fill="#DA428F"/>
<path d="M16.0681 17.3894L12.4945 15.4819V11.667C12.4945 11.4145 12.2733 11.21 12.0002 11.21C11.7274 11.21 11.5063 11.4145 11.5063 11.667V15.4819L7.93264 17.3894C7.69638 17.5156 7.61501 17.7954 7.75154 18.0138C7.88813 18.2324 8.19064 18.3072 8.42695 18.1813L12.0002 16.2734L15.5738 18.1809C15.8101 18.3072 16.1123 18.2323 16.2488 18.0138C16.3854 17.7954 16.3044 17.5156 16.0681 17.3894Z" fill="#DA428F"/>
</svg>
