<svg width="24" height="25" viewBox="0 0 24 25" fill="none" xmlns="http://www.w3.org/2000/svg">
<path d="M9 24.9701H23C23.6 24.9701 24 24.5701 24 23.9701V1.97009C24 1.37009 23.6 0.970093 23 0.970093H9C8.4 0.970093 8 1.37009 8 1.97009V8.97009C8 9.57009 8.4 9.97009 9 9.97009C9.6 9.97009 10 9.57009 10 8.97009V2.97009H22V22.9701H10V16.9701C10 16.3701 9.6 15.9701 9 15.9701C8.4 15.9701 8 16.3701 8 16.9701V23.9701C8 24.5701 8.4 24.9701 9 24.9701Z" fill="#DA428F"/>
<path d="M1 13.9701H16C16.6 13.9701 17 13.5701 17 12.9701C17 12.3701 16.6 11.9701 16 11.9701H1C0.400002 11.9701 2.02656e-06 12.3701 2.02656e-06 12.9701C2.02656e-06 13.5701 0.400002 13.9701 1 13.9701Z" fill="#DA428F"/>
<path d="M16 14C15.7 14 15.5 13.9 15.3 13.7L11.3 9.7C10.9 9.3 10.9 8.7 11.3 8.3C11.7 7.9 12.3 7.9 12.7 8.3L16.7 12.3C17.1 12.7 17.1 13.3 16.7 13.7C16.5 13.9 16.3 14 16 14Z" fill="#DA428F"/>
<path d="M12 18C11.7 18 11.5 17.9 11.3 17.7C10.9 17.3 10.9 16.7 11.3 16.3L15.3 12.3C15.7 11.9 16.3 11.9 16.7 12.3C17.1 12.7 17.1 13.3 16.7 13.7L12.7 17.7C12.5 17.9 12.3 18 12 18Z" fill="#DA428F"/>
</svg>
