<svg width="24" height="24" viewBox="0 0 24 24" fill="none" xmlns="http://www.w3.org/2000/svg">
<path d="M15 24H1C0.4 24 0 23.6 0 23V1C0 0.4 0.4 0 1 0H15C15.6 0 16 0.4 16 1V8C16 8.6 15.6 9 15 9C14.4 9 14 8.6 14 8V2H2V22H14V16C14 15.4 14.4 15 15 15C15.6 15 16 15.4 16 16V23C16 23.6 15.6 24 15 24Z" fill="#DA428F"/>
<path d="M23 13H8C7.4 13 7 12.6 7 12C7 11.4 7.4 11 8 11H23C23.6 11 24 11.4 24 12C24 12.6 23.6 13 23 13Z" fill="#DA428F"/>
<path d="M23 13C22.7 13 22.5 12.9 22.3 12.7L18.3 8.7C17.9 8.3 17.9 7.7 18.3 7.3C18.7 6.9 19.3 6.9 19.7 7.3L23.7 11.3C24.1 11.7 24.1 12.3 23.7 12.7C23.5 12.9 23.3 13 23 13Z" fill="#DA428F"/>
<path d="M19 17C18.7 17 18.5 16.9 18.3 16.7C17.9 16.3 17.9 15.7 18.3 15.3L22.3 11.3C22.7 10.9 23.3 10.9 23.7 11.3C24.1 11.7 24.1 12.3 23.7 12.7L19.7 16.7C19.5 16.9 19.3 17 19 17Z" fill="#DA428F"/>
</svg>
