<svg width="240" height="48" viewBox="0 0 240 48" fill="none" xmlns="http://www.w3.org/2000/svg">
<path d="M37 17.8712H34M34 17.8712H32.5C29.5 14.8739 25 11.8709 22 14.8712M34 17.8712V29.8711M22 14.8712L17.4993 19.3736C17.3803 19.4927 17.3208 19.5522 17.2729 19.605C16.2325 20.7496 16.2329 22.4976 17.2739 23.6418C17.3218 23.6944 17.3815 23.754 17.5005 23.8729C17.6195 23.9919 17.679 24.0514 17.7317 24.0993C18.8761 25.1392 20.6236 25.1391 21.7677 24.0987C21.8203 24.0508 21.8798 23.9913 21.9988 23.8723L23.4994 22.3717M22 14.8712C19 11.8709 14.5 14.874 11.5 17.8713H10M34 29.8711V34.3711H37M34 29.8711H29.7574M10 17.8713H7M10 17.8713V29.8711M10 29.8711H13L13.573 31.0171C14.3434 32.5581 16.4663 32.7495 17.5 31.3711C18.3179 32.1891 18.7268 32.598 19.168 32.8167C20.0073 33.2325 20.9927 33.2325 21.832 32.8167C22.2731 32.598 22.6822 32.1891 23.5 31.3711L24.25 32.1211C24.3694 32.2405 24.4293 32.3004 24.4821 32.3485C25.6264 33.3886 27.3736 33.3886 28.518 32.3485C28.5708 32.3004 28.6306 32.2405 28.75 32.1211C28.8694 32.0017 28.9293 31.942 28.9773 31.8891C30.0174 30.7449 30.0174 28.9975 28.9773 27.8533C28.9293 27.8004 28.8694 27.7407 28.75 27.6211L26.5 25.3711M10 29.8711V34.3711H7" stroke="#44277A" stroke-width="2" stroke-linecap="round" stroke-linejoin="round"/>
<line x1="44.5" y1="7" x2="44.5" y2="41" stroke="#44277A"/>
</svg>
