<svg width="48" height="48" viewBox="0 0 48 48" fill="none" xmlns="http://www.w3.org/2000/svg">
<rect width="48" height="48" rx="12" fill="#DA428F"/>
<path d="M12.4615 21.6923V20.5385H11.3077V21.6923H12.4615ZM21.6923 21.6923V20.5385H20.5385V21.6923H21.6923ZM21.6923 30.9231H20.5385V32.0769H21.6923V30.9231ZM37.8462 14.7692H39V14.2913L38.6622 13.9534L37.8462 14.7692ZM30.9231 7.84617L31.7391 7.03028L31.401 6.69232H30.9231V7.84617ZM12.4615 22.8462H14.7692V20.5385H12.4615V22.8462ZM13.6154 32.0769V26.3077H11.3077V32.0769H13.6154ZM13.6154 26.3077V21.6923H11.3077V26.3077H13.6154ZM14.7692 25.1539H12.4615V27.4616H14.7692V25.1539ZM15.9231 24C15.9231 24.6373 15.4065 25.1539 14.7692 25.1539V27.4616C16.681 27.4616 18.2308 25.9118 18.2308 24H15.9231ZM14.7692 22.8462C15.4065 22.8462 15.9231 23.3628 15.9231 24H18.2308C18.2308 22.0883 16.681 20.5385 14.7692 20.5385V22.8462ZM20.5385 21.6923V30.9231H22.8462V21.6923H20.5385ZM21.6923 32.0769H24V29.7692H21.6923V32.0769ZM27.4615 28.6154V24H25.1538V28.6154H27.4615ZM24 20.5385H21.6923V22.8462H24V20.5385ZM27.4615 24C27.4615 22.0883 25.9118 20.5385 24 20.5385V22.8462C24.6372 22.8462 25.1538 23.3628 25.1538 24H27.4615ZM24 32.0769C25.9118 32.0769 27.4615 30.5271 27.4615 28.6154H25.1538C25.1538 29.2526 24.6372 29.7692 24 29.7692V32.0769ZM29.7692 20.5385V32.0769H32.0769V20.5385H29.7692ZM30.9231 22.8462H36.6923V20.5385H30.9231V22.8462ZM30.9231 27.4616H34.3846V25.1539H30.9231V27.4616ZM11.3077 18.2308V10.1539H9V18.2308H11.3077ZM36.6923 14.7692V18.2308H39V14.7692H36.6923ZM12.4615 9.00001H30.9231V6.69232H12.4615V9.00001ZM30.1071 8.66206L37.0302 15.5851L38.6622 13.9534L31.7391 7.03028L30.1071 8.66206ZM11.3077 10.1539C11.3077 9.51661 11.8243 9.00001 12.4615 9.00001V6.69232C10.5498 6.69232 9 8.24211 9 10.1539H11.3077ZM9 34.3846V37.8462H11.3077V34.3846H9ZM12.4615 41.3077H35.5385V39H12.4615V41.3077ZM39 37.8462V34.3846H36.6923V37.8462H39ZM35.5385 41.3077C37.4502 41.3077 39 39.7579 39 37.8462H36.6923C36.6923 38.4833 36.1756 39 35.5385 39V41.3077ZM9 37.8462C9 39.7579 10.5498 41.3077 12.4615 41.3077V39C11.8243 39 11.3077 38.4833 11.3077 37.8462H9Z" fill="white"/>
</svg>
