<svg width="48" height="49" viewBox="0 0 48 49" fill="none" xmlns="http://www.w3.org/2000/svg">
<rect y="0.0117188" width="48" height="48" rx="12" fill="#44277A"/>
<path d="M12.4615 21.7041V20.5503H11.3077V21.7041H12.4615ZM21.6923 21.7041V20.5503H20.5385V21.7041H21.6923ZM21.6923 30.9349H20.5385V32.0887H21.6923V30.9349ZM37.8462 14.781H39V14.3031L38.6622 13.9651L37.8462 14.781ZM30.9231 7.85795L31.7391 7.04206L31.401 6.7041H30.9231V7.85795ZM12.4615 22.8579H14.7692V20.5503H12.4615V22.8579ZM13.6154 32.0887V26.3195H11.3077V32.0887H13.6154ZM13.6154 26.3195V21.7041H11.3077V26.3195H13.6154ZM14.7692 25.1656H12.4615V27.4733H14.7692V25.1656ZM15.9231 24.0118C15.9231 24.649 15.4065 25.1656 14.7692 25.1656V27.4733C16.681 27.4733 18.2308 25.9236 18.2308 24.0118H15.9231ZM14.7692 22.8579C15.4065 22.8579 15.9231 23.3745 15.9231 24.0118H18.2308C18.2308 22.1 16.681 20.5503 14.7692 20.5503V22.8579ZM20.5385 21.7041V30.9349H22.8462V21.7041H20.5385ZM21.6923 32.0887H24V29.781H21.6923V32.0887ZM27.4615 28.6272V24.0118H25.1538V28.6272H27.4615ZM24 20.5503H21.6923V22.8579H24V20.5503ZM27.4615 24.0118C27.4615 22.1 25.9118 20.5503 24 20.5503V22.8579C24.6372 22.8579 25.1538 23.3745 25.1538 24.0118H27.4615ZM24 32.0887C25.9118 32.0887 27.4615 30.5389 27.4615 28.6272H25.1538C25.1538 29.2644 24.6372 29.781 24 29.781V32.0887ZM29.7692 20.5503V32.0887H32.0769V20.5503H29.7692ZM30.9231 22.8579H36.6923V20.5503H30.9231V22.8579ZM30.9231 27.4733H34.3846V25.1656H30.9231V27.4733ZM11.3077 18.2426V10.1656H9V18.2426H11.3077ZM36.6923 14.781V18.2426H39V14.781H36.6923ZM12.4615 9.01179H30.9231V6.7041H12.4615V9.01179ZM30.1071 8.67384L37.0302 15.5969L38.6622 13.9651L31.7391 7.04206L30.1071 8.67384ZM11.3077 10.1656C11.3077 9.52839 11.8243 9.01179 12.4615 9.01179V6.7041C10.5498 6.7041 9 8.25389 9 10.1656H11.3077ZM9 34.3964V37.858H11.3077V34.3964H9ZM12.4615 41.3195H35.5385V39.0118H12.4615V41.3195ZM39 37.858V34.3964H36.6923V37.858H39ZM35.5385 41.3195C37.4502 41.3195 39 39.7696 39 37.858H36.6923C36.6923 38.4951 36.1756 39.0118 35.5385 39.0118V41.3195ZM9 37.858C9 39.7696 10.5498 41.3195 12.4615 41.3195V39.0118C11.8243 39.0118 11.3077 38.4951 11.3077 37.858H9Z" fill="white"/>
</svg>
