<svg width="34" height="30" viewBox="0 0 34 30" fill="none" xmlns="http://www.w3.org/2000/svg">
<path fill-rule="evenodd" clip-rule="evenodd" d="M14.875 22.5V18.75L6.375 24.375L14.875 30V26.25H21.2436C24.6252 26.2485 27.8679 25.0629 30.2596 22.9536C32.6514 20.8443 33.9966 17.9837 34 15H29.75C29.75 16.9878 28.8556 18.8943 27.2634 20.3007C25.6712 21.707 23.5114 22.498 21.2585 22.5H14.875ZM19.125 3.75H12.7564C9.3748 3.75149 6.13211 4.93705 3.74037 7.04635C1.34864 9.15565 0.00337778 12.0163 0 15H4.25C4.25 13.0122 5.14437 11.1057 6.73659 9.69935C8.32881 8.29304 10.4886 7.50199 12.7415 7.5H19.125V11.25L27.625 5.625L19.125 0V3.75Z" fill="#44277A"/>
</svg>
