<svg width="20" height="25" viewBox="0 0 20 25" fill="none" xmlns="http://www.w3.org/2000/svg">
<path d="M5.92073 4.82589C7.02839 4.82589 7.92661 3.92804 7.92661 2.81996C7.92661 1.71188 7.02839 0.81366 5.92073 0.81366C4.81228 0.81366 3.91406 1.71188 3.91406 2.81996C3.91406 3.92799 4.81228 4.82589 5.92073 4.82589Z" fill="#C30000"/>
<path d="M16.2014 6.95777V6.91819C16.2014 6.32383 15.7199 5.84235 15.1256 5.84235H6.0886C3.91095 5.84235 1.97721 6.56848 1.49461 8.98258L0.0209103 15.135C-0.0827163 15.5983 0.208908 16.0572 0.672297 16.1609C1.1349 16.2641 1.59382 15.9725 1.69707 15.5095L3.24738 11.4104L3.64854 23.6094C3.64854 24.1716 4.10411 24.6271 4.66592 24.6271C5.22847 24.6271 5.68409 24.1715 5.68409 23.6094L6.0886 16.3344L6.49236 23.6094C6.49236 24.1716 6.94831 24.6271 7.51012 24.6271C8.07229 24.6271 8.52829 24.1715 8.52829 23.6094L9.10079 8.8771L15.2732 8.02329C15.805 7.94962 16.2014 7.49479 16.2014 6.95777Z" fill="#C30000"/>
<path d="M14.7765 14.1339L17.5078 11.8329L16.2853 10.3818L13.554 12.6828L14.7765 14.1339Z" fill="#C30000"/>
<path d="M13.7463 21.6879C13.7463 22.1198 14.0961 22.4696 14.5276 22.4696C14.9587 22.4696 15.3089 22.1198 15.3089 21.6879C15.3089 21.2564 14.9587 20.907 14.5276 20.907C14.0961 20.907 13.7463 21.2564 13.7463 21.6879Z" fill="#C30000"/>
<path d="M17.3176 18.5627H15.6433V20.237H17.3176V18.5627Z" fill="#C30000"/>
<path d="M18.6531 14.657L17.7404 23.288H13.0977L12.185 14.657H10.8386L11.8927 24.6273H18.9455L19.9999 14.657H18.6531Z" fill="#C30000"/>
</svg>
