<svg width="20" height="24" viewBox="0 0 20 24" fill="none" xmlns="http://www.w3.org/2000/svg">
<path d="M5.92073 4.01223C7.02839 4.01223 7.92661 3.11438 7.92661 2.0063C7.92661 0.898221 7.02839 0 5.92073 0C4.81228 0 3.91406 0.898221 3.91406 2.0063C3.91406 3.11433 4.81228 4.01223 5.92073 4.01223Z" fill="#DA428F"/>
<path d="M16.2014 6.14411V6.10453C16.2014 5.51017 15.7199 5.02869 15.1256 5.02869H6.0886C3.91095 5.02869 1.97721 5.75482 1.49461 8.16893L0.0209103 14.3213C-0.0827163 14.7847 0.208908 15.2436 0.672297 15.3472C1.1349 15.4505 1.59382 15.1588 1.69707 14.6959L3.24738 10.5968L3.64854 22.7957C3.64854 23.3579 4.10411 23.8135 4.66592 23.8135C5.22847 23.8135 5.68409 23.3578 5.68409 22.7957L6.0886 15.5208L6.49236 22.7957C6.49236 23.3579 6.94831 23.8135 7.51012 23.8135C8.07229 23.8135 8.52829 23.3578 8.52829 22.7957L9.10079 8.06344L15.2732 7.20964C15.805 7.13596 16.2014 6.68113 16.2014 6.14411Z" fill="#DA428F"/>
<path d="M14.7765 13.3202L17.5078 11.0193L16.2853 9.56818L13.554 11.8691L14.7765 13.3202Z" fill="#DA428F"/>
<path d="M13.7463 20.8743C13.7463 21.3062 14.0961 21.6559 14.5276 21.6559C14.9587 21.6559 15.3089 21.3062 15.3089 20.8743C15.3089 20.4427 14.9587 20.0934 14.5276 20.0934C14.0961 20.0934 13.7463 20.4427 13.7463 20.8743Z" fill="#DA428F"/>
<path d="M17.3176 17.749H15.6433V19.4233H17.3176V17.749Z" fill="#DA428F"/>
<path d="M18.6531 13.8434L17.7404 22.4743H13.0977L12.185 13.8434H10.8386L11.8927 23.8137H18.9455L19.9999 13.8434H18.6531Z" fill="#DA428F"/>
</svg>
