<svg width="24" height="24" viewBox="0 0 24 24" fill="none" xmlns="http://www.w3.org/2000/svg">
<path d="M10 10C12.2091 10 14 8.20914 14 6C14 3.79086 12.2091 2 10 2C7.79086 2 6 3.79086 6 6C6 8.20914 7.79086 10 10 10Z" stroke="#DA428F" stroke-width="2"/>
<path d="M21 10H19M19 10H17M19 10V8M19 10V12" stroke="#DA428F" stroke-width="2" stroke-linecap="round"/>
<path d="M17.9975 18C18 17.8358 18 17.669 18 17.5C18 15.0147 14.4183 13 10 13C5.58172 13 2 15.0147 2 17.5C2 19.9853 2 22 10 22C12.231 22 13.8398 21.8433 15 21.5634" stroke="#DA428F" stroke-width="2" stroke-linecap="round"/>
</svg>
