<svg width="1440" height="304" viewBox="0 0 1440 304" fill="none" xmlns="http://www.w3.org/2000/svg">
<path d="M1439.28 235.485H1.19238V170.281C634.419 170.281 482.214 47.5257 1048.7 39.3832C1067.68 39.1103 1077.96 44.0594 1064.45 46.9487C1018.84 56.7003 955.062 75.7029 955.062 105.728C955.062 137.819 1168.41 170.281 1439.28 170.281V235.485ZM1191.25 71.8779C1212.16 67.3609 1174.41 59.2271 1139.77 59.2271C1139.77 59.2271 1170.34 76.3943 1191.25 71.8779ZM1042.86 19.1029C1023.68 8.39819 934.374 15.8953 909.22 28.1948C909.22 28.1948 1062.04 29.8076 1042.86 19.1029Z" fill="#842078"/>
<path d="M1415.91 304C1422.3 304 1428.43 303.452 1432.94 302.476C1437.46 301.5 1440 300.176 1440 298.796V233.317C1440 232.225 1435.86 231.3 1430.81 231.244C1367.68 230.553 1319.23 222.831 1319.23 215.194C1319.23 209.185 1329.47 204.945 1339.4 202.249C1344.75 200.796 1339.24 198.659 1330.72 198.895C1203.34 202.43 1234.64 231.295 1080.26 231.295C1012.7 231.295 959.491 223.198 959.491 215.194C959.491 209.185 969.734 204.945 979.66 202.249C985.008 200.796 979.505 198.659 970.983 198.895C843.598 202.43 874.903 231.295 720.522 231.295C652.965 231.295 599.752 223.198 599.752 215.194C599.752 209.185 609.995 204.945 619.922 202.249C625.269 200.796 619.766 198.659 611.244 198.895C483.86 202.43 515.165 231.295 360.784 231.295C293.226 231.295 240.013 223.198 240.013 215.194C240.013 209.185 250.256 204.945 260.183 202.249C265.53 200.796 260.027 198.659 251.505 198.895C124.121 202.43 155.426 231.295 1.04504 231.295L0.00317016 297.988C-0.227077 301.293 12.1142 304 27.4199 304H1415.91Z" fill="#DA428F"/>
</svg>
