<svg width="360" height="304" viewBox="0 0 360 304" fill="none" xmlns="http://www.w3.org/2000/svg">
<path d="M359.82 235.485H0.298096V170.281C158.605 170.281 120.554 47.5258 262.176 39.3833C266.919 39.1103 269.491 44.0595 266.112 46.9488C254.709 56.7004 238.765 75.703 238.765 105.728C238.765 137.819 292.102 170.281 359.82 170.281V235.485ZM297.812 71.878C303.04 67.3609 293.603 59.2272 284.943 59.2272C284.943 59.2272 292.585 76.3944 297.812 71.878ZM260.715 19.103C255.919 8.39825 233.594 15.8953 227.305 28.1949C227.305 28.1949 265.511 29.8077 260.715 19.103Z" fill="#842078"/>
<path d="M353.978 304C355.575 304 357.107 303.452 358.236 302.476C359.365 301.5 360 300.176 360 298.796V233.317C360 232.225 358.965 231.3 357.703 231.244C341.92 230.553 329.807 222.831 329.807 215.194C329.807 209.185 332.368 204.945 334.85 202.249C336.187 200.796 334.811 198.659 332.68 198.895C300.834 202.431 308.661 231.295 270.065 231.295C253.176 231.295 239.873 223.198 239.873 215.194C239.873 209.185 242.433 204.945 244.915 202.249C246.252 200.796 244.876 198.659 242.746 198.895C210.9 202.431 218.726 231.295 180.131 231.295C163.241 231.295 149.938 223.198 149.938 215.194C149.938 209.185 152.499 204.945 154.98 202.249C156.317 200.796 154.942 198.659 152.811 198.895C120.965 202.431 128.791 231.295 90.1959 231.295C73.3066 231.295 60.0033 223.198 60.0033 215.194C60.0033 209.185 62.5641 204.945 65.0457 202.249C66.3826 200.796 65.0069 198.659 62.8764 198.895C31.0302 202.431 38.8565 231.295 0.26126 231.295L0.000792539 297.988C-0.0567693 301.294 3.02855 304 6.85497 304H353.978Z" fill="#DA428F"/>
</svg>
